# xmcd
#
# Track frame offsets:
#	150
#	12563
#	23052
#	37508
#	54703
#
# Disc length: 1103 seconds
#
# Revision: 2
# Processed by: cddbd v1.5.1PL0 Copyright (c) Steve Scherf et al.
# Submitted via: audiograbber 1.81.01
#
DISCID=31044d05
DTITLE=José González - Stay in the Shade [EP]
DYEAR=2004
DGENRE=Meditative
TTITLE0=Stay in the Shade
TTITLE1=Down the Hillside
TTITLE2=Sensing Owls
TTITLE3=Hand on Your Heart
TTITLE4=Instr.
EXTD=http://www.imperialrecordings.se
EXTT0=
EXTT1=
EXTT2=
EXTT3=
EXTT4=
PLAYORDER=
